<svg version="1.1" id="Layer_1" x="0px" y="0px"
	 width="100%" viewBox="0 0 510 145" enable-background="new 0 0 510 145" xml:space="preserve">
<path opacity="1.000000" stroke="none" 
	d="
M368.000000,146.000000 
	C245.333374,146.000000 123.166756,146.000000 1.000098,146.000000 
	C1.000066,97.666725 1.000066,49.333454 1.000033,1.000137 
	C170.999878,1.000092 340.999756,1.000092 510.999725,1.000046 
	C510.999817,49.333195 510.999817,97.666389 510.999908,145.999786 
	C463.500000,146.000000 416.000000,146.000000 368.000000,146.000000 
M21.746122,63.733948 
	C21.726244,64.124107 21.706366,64.514267 21.217772,65.520393 
	C21.375414,68.044647 21.533056,70.568901 21.759636,73.997536 
	C21.736374,77.633949 21.713112,81.270363 21.207830,85.592918 
	C21.369650,92.426796 21.531469,99.260666 21.768185,106.794823 
	C21.748602,107.497887 21.729019,108.200958 21.267057,109.381973 
	C21.648975,110.140434 22.030893,110.898895 23.277359,111.546318 
	C27.381010,111.584564 31.484659,111.622810 36.421719,111.496613 
	C36.608997,99.401649 36.856113,87.307137 36.945511,75.211449 
	C36.970894,71.777023 36.536728,68.339203 36.244236,64.302116 
	C36.266415,63.900166 36.288589,63.498219 36.771454,62.533199 
	C37.214737,60.110538 36.959480,58.117264 33.796707,58.286011 
	C30.388645,58.467850 26.983030,58.725536 23.583685,59.031628 
	C20.664862,59.294453 20.216887,60.326733 21.746122,63.733948 
M264.179657,75.246956 
	C270.225586,80.443138 276.355347,85.547165 282.251312,90.908279 
	C283.528778,92.069893 284.572601,94.117714 284.677460,95.821739 
	C284.992676,100.944000 284.791077,106.098068 284.791077,111.285507 
	C289.983490,111.285507 294.571594,111.285507 299.167450,111.285507 
	C299.167450,87.818153 299.167450,64.637077 299.167450,41.639015 
	C294.164124,41.639015 289.588562,41.639015 284.585052,41.639015 
	C284.585052,52.187183 284.585052,62.380756 284.585052,72.989029 
	C274.265472,64.160767 263.859192,56.289570 254.756027,47.124161 
	C248.207031,40.530392 241.137039,40.940964 233.112320,41.579823 
	C233.112320,64.900833 233.112320,87.977478 233.112320,111.177414 
	C238.000320,111.177414 242.702423,111.177414 247.884125,111.177414 
	C247.884125,94.591026 247.884125,78.404457 247.884125,61.045849 
	C253.685730,66.166527 258.628326,70.529030 264.179657,75.246956 
M98.383163,88.139923 
	C103.161011,91.019333 104.773849,95.203255 104.106880,100.696793 
	C103.692451,104.110199 104.029930,107.614883 104.029930,111.180557 
	C109.108421,111.180557 113.816330,111.180557 118.387314,111.180557 
	C118.387314,87.723457 118.387314,64.654755 118.387314,41.542992 
	C113.481804,41.542992 108.913849,41.542992 103.858765,41.542992 
	C103.858765,51.913486 103.858765,61.957539 103.858765,73.154961 
	C95.267921,65.730324 87.469101,59.114067 79.811783,52.337910 
	C71.989616,45.415874 64.650505,37.445168 52.299911,42.256222 
	C52.299911,64.892952 52.299911,87.959366 52.299911,111.217529 
	C57.225372,111.217529 61.944809,111.217529 67.083252,111.217529 
	C67.083252,94.650475 67.083252,78.436234 67.083252,61.289780 
	C77.816223,70.473869 87.842598,79.053329 98.383163,88.139923 
M477.141052,72.599136 
	C480.473969,69.644051 483.806885,66.688972 487.333801,63.561878 
	C482.957092,59.390881 479.605988,56.197311 475.987915,52.749313 
	C472.152557,56.958508 468.159485,61.340752 463.441803,66.518242 
	C458.232819,60.913315 453.789673,56.132465 450.145905,52.211746 
	C446.374146,55.367020 442.843292,58.320770 439.159851,61.402157 
	C444.040100,66.549187 448.548615,71.304131 454.165710,77.228264 
	C449.486053,81.339142 445.168488,85.131943 440.336151,89.376938 
	C444.095001,92.704865 447.547363,95.761459 451.511353,99.271004 
	C455.221619,95.260643 459.238037,90.919334 464.152710,85.607109 
	C468.083344,90.116478 471.532288,94.073250 474.328949,97.281670 
	C478.241058,93.941429 481.779175,90.920540 486.371338,86.999664 
	C481.771973,83.130547 477.727295,79.728065 473.656311,76.303459 
	C475.066803,74.792572 475.857117,73.945976 477.141052,72.599136 
M136.176285,92.499313 
	C136.176285,98.746178 136.176285,104.993042 136.176285,111.338425 
	C141.445114,111.338425 146.043274,111.338425 151.172058,111.338425 
	C151.172058,100.901108 151.172058,90.690216 151.172058,80.005287 
	C160.906494,80.005287 170.115921,80.005287 179.216949,80.005287 
	C179.216949,74.779198 179.216949,70.048325 179.216949,65.272202 
	C164.779160,65.272202 150.725479,65.272202 136.176407,65.272202 
	C136.176407,74.283394 136.176407,82.891518 136.176285,92.499313 
M368.499847,52.715122 
	C378.890167,52.715122 389.280518,52.715122 399.674500,52.715122 
	C399.674500,47.323887 399.674500,42.738098 399.674500,38.006638 
	C380.408691,38.006638 361.386169,38.006638 342.274292,38.006638 
	C342.274292,42.972492 342.274292,47.660442 342.274292,52.714737 
	C350.929993,52.714737 359.214905,52.714737 368.499847,52.715122 
M424.827667,105.447708 
	C424.827667,90.356468 424.827667,75.265228 424.827667,60.007168 
	C419.845520,60.007168 415.120422,60.007168 410.363525,60.007168 
	C410.363525,77.207726 410.363525,94.119499 410.363525,111.213791 
	C415.269226,111.213791 419.970154,111.213791 424.826385,111.213791 
	C424.826385,109.346313 424.826385,107.857208 424.827667,105.447708 
M327.930450,59.743599 
	C323.812805,59.743599 319.695160,59.743599 315.545715,59.743599 
	C315.545715,77.255257 315.545715,94.274170 315.545715,111.293015 
	C320.485840,111.293015 325.073883,111.293015 329.904236,111.293015 
	C329.904236,94.585617 329.916412,78.163185 329.858795,61.741001 
	C329.856537,61.097717 329.186493,60.456776 327.930450,59.743599 
M140.137360,56.387142 
	C155.030411,56.387142 169.923447,56.387142 184.795135,56.387142 
	C184.795135,50.991894 184.795135,46.388309 184.795135,41.640434 
	C168.456329,41.640434 152.428009,41.640434 136.191879,41.640434 
	C136.191879,45.848831 136.416428,49.689972 136.116760,53.489777 
	C135.899307,56.247097 137.174744,56.596252 140.137360,56.387142 
M215.251404,67.518127 
	C215.251404,64.955849 215.251404,62.393574 215.251404,59.996910 
	C210.025223,59.996910 205.593307,59.996910 201.072800,59.996910 
	C201.072800,77.230431 201.072800,94.216125 201.072800,111.196686 
	C205.931763,111.196686 210.464905,111.196686 215.252609,111.196686 
	C215.252609,96.724091 215.252609,82.618004 215.251404,67.518127 
M378.226624,80.500153 
	C378.226624,73.724449 378.226624,66.948746 378.226624,60.123734 
	C373.099762,60.123734 368.404327,60.123734 363.958496,60.123734 
	C363.958496,77.391624 363.958496,94.290932 363.958496,111.228561 
	C368.854584,111.228561 373.416931,111.228561 378.226654,111.228561 
	C378.226654,101.110687 378.226654,91.305420 378.226624,80.500153 
M417.434692,39.589657 
	C415.148193,39.589657 412.861664,39.589657 410.398834,39.589657 
	C410.398834,44.104843 410.398834,48.156986 410.398834,52.337978 
	C415.316223,52.337978 419.981781,52.337978 424.587036,52.337978 
	C424.587036,47.888958 424.587036,43.847534 424.587036,39.588139 
	C422.270447,39.588139 420.297302,39.588139 417.434692,39.589657 
M315.450684,51.896481 
	C320.229431,52.257973 325.008179,52.619465 329.687958,52.973473 
	C329.687958,47.919827 329.687958,43.887383 329.687958,39.853065 
	C324.704346,39.853065 320.131836,39.853065 315.279419,39.853065 
	C315.279419,43.760704 315.279419,47.383266 315.450684,51.896481 
M205.683167,39.605022 
	C204.116211,39.688545 202.549240,39.772064 201.136124,39.847385 
	C201.136124,44.410885 201.136124,48.440857 201.136124,52.527084 
	C205.939133,52.527084 210.351196,52.527084 214.901276,52.527084 
	C214.901276,48.167118 214.901276,43.998127 214.901276,39.605442 
	C211.897766,39.605442 209.257278,39.605442 205.683167,39.605022 
M22.835384,52.632679 
	C27.221910,52.632679 31.608438,52.632679 35.938469,52.632679 
	C35.938469,47.974503 35.938469,43.923164 35.938469,39.941280 
	C31.080160,39.941280 26.545097,39.941280 22.038477,39.941280 
	C22.038477,44.232792 22.038477,48.180115 22.835384,52.632679 
z"/>
<path fill="#F4F5F6" opacity="1.000000" stroke="none" 
	d="
M263.875305,75.069244 
	C258.628326,70.529030 253.685730,66.166527 247.884125,61.045849 
	C247.884125,78.404457 247.884125,94.591026 247.884125,111.177414 
	C242.702423,111.177414 238.000320,111.177414 233.112320,111.177414 
	C233.112320,87.977478 233.112320,64.900833 233.112320,41.579823 
	C241.137039,40.940964 248.207031,40.530392 254.756027,47.124161 
	C263.859192,56.289570 274.265472,64.160767 284.585052,72.989029 
	C284.585052,62.380756 284.585052,52.187183 284.585052,41.639015 
	C289.588562,41.639015 294.164124,41.639015 299.167450,41.639015 
	C299.167450,64.637077 299.167450,87.818153 299.167450,111.285507 
	C294.571594,111.285507 289.983490,111.285507 284.791077,111.285507 
	C284.791077,106.098068 284.992676,100.944000 284.677460,95.821739 
	C284.572601,94.117714 283.528778,92.069893 282.251312,90.908279 
	C276.355347,85.547165 270.225586,80.443138 263.875305,75.069244 
z"/>
<path fill="#F4F5F7" opacity="1.000000" stroke="none" 
	d="
M98.126068,87.886353 
	C87.842598,79.053329 77.816223,70.473869 67.083252,61.289780 
	C67.083252,78.436234 67.083252,94.650475 67.083252,111.217529 
	C61.944809,111.217529 57.225372,111.217529 52.299911,111.217529 
	C52.299911,87.959366 52.299911,64.892952 52.299911,42.256222 
	C64.650505,37.445168 71.989616,45.415874 79.811783,52.337910 
	C87.469101,59.114067 95.267921,65.730324 103.858765,73.154961 
	C103.858765,61.957539 103.858765,51.913486 103.858765,41.542992 
	C108.913849,41.542992 113.481804,41.542992 118.387314,41.542992 
	C118.387314,64.654755 118.387314,87.723457 118.387314,111.180557 
	C113.816330,111.180557 109.108421,111.180557 104.029930,111.180557 
	C104.029930,107.614883 103.692451,104.110199 104.106880,100.696793 
	C104.773849,95.203255 103.161011,91.019333 98.126068,87.886353 
z"/>
<path fill="#F7F8F9" opacity="1.000000" stroke="none" 
	d="
M476.894257,72.849258 
	C475.857117,73.945976 475.066803,74.792572 473.656311,76.303459 
	C477.727295,79.728065 481.771973,83.130547 486.371338,86.999664 
	C481.779175,90.920540 478.241058,93.941429 474.328949,97.281670 
	C471.532288,94.073250 468.083344,90.116478 464.152710,85.607109 
	C459.238037,90.919334 455.221619,95.260643 451.511353,99.271004 
	C447.547363,95.761459 444.095001,92.704865 440.336151,89.376938 
	C445.168488,85.131943 449.486053,81.339142 454.165710,77.228264 
	C448.548615,71.304131 444.040100,66.549187 439.159851,61.402157 
	C442.843292,58.320770 446.374146,55.367020 450.145905,52.211746 
	C453.789673,56.132465 458.232819,60.913315 463.441803,66.518242 
	C468.159485,61.340752 472.152557,56.958508 475.987915,52.749313 
	C479.605988,56.197311 482.957092,59.390881 487.333801,63.561878 
	C483.806885,66.688972 480.473969,69.644051 476.894257,72.849258 
z"/>
<path fill="#F3F4F6" opacity="1.000000" stroke="none" 
	d="
M136.176346,91.999474 
	C136.176407,82.891518 136.176407,74.283394 136.176407,65.272202 
	C150.725479,65.272202 164.779160,65.272202 179.216949,65.272202 
	C179.216949,70.048325 179.216949,74.779198 179.216949,80.005287 
	C170.115921,80.005287 160.906494,80.005287 151.172058,80.005287 
	C151.172058,90.690216 151.172058,100.901108 151.172058,111.338425 
	C146.043274,111.338425 141.445114,111.338425 136.176285,111.338425 
	C136.176285,104.993042 136.176285,98.746178 136.176346,91.999474 
z"/>
<path fill="#F5F6F7" opacity="1.000000" stroke="none" 
	d="
M367.999817,52.714928 
	C359.214905,52.714737 350.929993,52.714737 342.274292,52.714737 
	C342.274292,47.660442 342.274292,42.972492 342.274292,38.006638 
	C361.386169,38.006638 380.408691,38.006638 399.674500,38.006638 
	C399.674500,42.738098 399.674500,47.323887 399.674500,52.715122 
	C389.280518,52.715122 378.890167,52.715122 367.999817,52.714928 
z"/>
<path fill="#F1F2F4" opacity="1.000000" stroke="none" 
	d="
M424.827026,105.907913 
	C424.826385,107.857208 424.826385,109.346313 424.826385,111.213791 
	C419.970154,111.213791 415.269226,111.213791 410.363525,111.213791 
	C410.363525,94.119499 410.363525,77.207726 410.363525,60.007168 
	C415.120422,60.007168 419.845520,60.007168 424.827667,60.007168 
	C424.827667,75.265228 424.827667,90.356468 424.827026,105.907913 
z"/>
<path fill="#F1F2F4" opacity="1.000000" stroke="none" 
	d="
M328.379028,59.779175 
	C329.186493,60.456776 329.856537,61.097717 329.858795,61.741001 
	C329.916412,78.163185 329.904236,94.585617 329.904236,111.293015 
	C325.073883,111.293015 320.485840,111.293015 315.545715,111.293015 
	C315.545715,94.274170 315.545715,77.255257 315.545715,59.743599 
	C319.695160,59.743599 323.812805,59.743599 328.379028,59.779175 
z"/>
<path fill="#F4F5F7" opacity="1.000000" stroke="none" 
	d="
M139.719772,56.386555 
	C137.174744,56.596252 135.899307,56.247097 136.116760,53.489777 
	C136.416428,49.689972 136.191879,45.848831 136.191879,41.640434 
	C152.428009,41.640434 168.456329,41.640434 184.795135,41.640434 
	C184.795135,46.388309 184.795135,50.991894 184.795135,56.387142 
	C169.923447,56.387142 155.030411,56.387142 139.719772,56.386555 
z"/>
<path fill="#FEFFFF" opacity="1.000000" stroke="none" 
	d="
M21.709438,108.904022 
	C21.729019,108.200958 21.748602,107.497887 21.871742,105.988083 
	C21.880150,98.423149 21.785000,91.664963 21.689850,84.906776 
	C21.713112,81.270363 21.736374,77.633949 21.866531,73.107635 
	C21.877781,69.779968 21.782133,67.342194 21.686485,64.904427 
	C21.706366,64.514267 21.726244,64.124107 21.860859,63.017319 
	C22.563953,61.544941 23.113714,60.175438 23.747093,60.135605 
	C27.194986,59.918774 30.681984,59.837505 34.111404,60.167751 
	C34.930927,60.246674 35.582142,62.073410 36.310768,63.096268 
	C36.288589,63.498219 36.266415,63.900166 36.136726,65.059189 
	C35.882248,81.097862 35.735279,96.379456 35.588310,111.661057 
	C31.484659,111.622810 27.381010,111.584564 22.759716,111.254448 
	C22.064529,110.276390 21.886982,109.590210 21.709438,108.904022 
z"/>
<path fill="#FBFCFC" opacity="1.000000" stroke="none" 
	d="
M215.252014,68.015022 
	C215.252609,82.618004 215.252609,96.724091 215.252609,111.196686 
	C210.464905,111.196686 205.931763,111.196686 201.072800,111.196686 
	C201.072800,94.216125 201.072800,77.230431 201.072800,59.996910 
	C205.593307,59.996910 210.025223,59.996910 215.251404,59.996910 
	C215.251404,62.393574 215.251404,64.955849 215.252014,68.015022 
z"/>
<path fill="#FBFCFC" opacity="1.000000" stroke="none" 
	d="
M378.226624,81.000153 
	C378.226654,91.305420 378.226654,101.110687 378.226654,111.228561 
	C373.416931,111.228561 368.854584,111.228561 363.958496,111.228561 
	C363.958496,94.290932 363.958496,77.391624 363.958496,60.123734 
	C368.404327,60.123734 373.099762,60.123734 378.226624,60.123734 
	C378.226624,66.948746 378.226624,73.724449 378.226624,81.000153 
z"/>
<path fill="#ECEEF0" opacity="1.000000" stroke="none" 
	d="
M417.879395,39.588898 
	C420.297302,39.588139 422.270447,39.588139 424.587036,39.588139 
	C424.587036,43.847534 424.587036,47.888958 424.587036,52.337978 
	C419.981781,52.337978 415.316223,52.337978 410.398834,52.337978 
	C410.398834,48.156986 410.398834,44.104843 410.398834,39.589657 
	C412.861664,39.589657 415.148193,39.589657 417.879395,39.588898 
z"/>
<path fill="#EBEEF0" opacity="1.000000" stroke="none" 
	d="
M315.365051,51.451153 
	C315.279419,47.383266 315.279419,43.760704 315.279419,39.853065 
	C320.131836,39.853065 324.704346,39.853065 329.687958,39.853065 
	C329.687958,43.887383 329.687958,47.919827 329.687958,52.973473 
	C325.008179,52.619465 320.229431,52.257973 315.365051,51.451153 
z"/>
<path fill="#F5F7F7" opacity="1.000000" stroke="none" 
	d="
M206.149979,39.605232 
	C209.257278,39.605442 211.897766,39.605442 214.901276,39.605442 
	C214.901276,43.998127 214.901276,48.167118 214.901276,52.527084 
	C210.351196,52.527084 205.939133,52.527084 201.136124,52.527084 
	C201.136124,48.440857 201.136124,44.410885 201.136124,39.847385 
	C202.549240,39.772064 204.116211,39.688545 206.149979,39.605232 
z"/>
<path fill="#F5F7F8" opacity="1.000000" stroke="none" 
	d="
M22.436932,52.380058 
	C22.038477,48.180115 22.038477,44.232792 22.038477,39.941280 
	C26.545097,39.941280 31.080160,39.941280 35.938469,39.941280 
	C35.938469,43.923164 35.938469,47.974503 35.938469,52.632679 
	C31.608438,52.632679 27.221910,52.632679 22.436932,52.380058 
z"/>
<path fill="#4C5164" opacity="1.000000" stroke="none" 
	d="
M36.005013,111.578835 
	C35.735279,96.379456 35.882248,81.097862 36.171265,65.359604 
	C36.536728,68.339203 36.970894,71.777023 36.945511,75.211449 
	C36.856113,87.307137 36.608997,99.401649 36.005013,111.578835 
z"/>
<path fill="#4C5164" opacity="1.000000" stroke="none" 
	d="
M36.541111,62.814735 
	C35.582142,62.073410 34.930927,60.246674 34.111404,60.167751 
	C30.681984,59.837505 27.194986,59.918774 23.747093,60.135605 
	C23.113714,60.175438 22.563953,61.544941 21.826351,62.725704 
	C20.216887,60.326733 20.664862,59.294453 23.583685,59.031628 
	C26.983030,58.725536 30.388645,58.467850 33.796707,58.286011 
	C36.959480,58.117264 37.214737,60.110538 36.541111,62.814735 
z"/>
<path fill="#4C5164" opacity="1.000000" stroke="none" 
	d="
M21.448841,85.249847 
	C21.785000,91.664963 21.880150,98.423149 21.834297,105.637939 
	C21.531469,99.260666 21.369650,92.426796 21.448841,85.249847 
z"/>
<path fill="#4C5164" opacity="1.000000" stroke="none" 
	d="
M21.452127,65.212410 
	C21.782133,67.342194 21.877781,69.779968 21.832062,72.655441 
	C21.533056,70.568901 21.375414,68.044647 21.452127,65.212410 
z"/>
<path fill="#4C5164" opacity="1.000000" stroke="none" 
	d="
M21.488247,109.142998 
	C21.886982,109.590210 22.064529,110.276390 22.327442,111.309967 
	C22.030893,110.898895 21.648975,110.140434 21.488247,109.142998 
z"/>
</svg>